# xmcd
#
# Track frame offsets:
#	150
#	14096
#	30116
#	45791
#	61501
#	79272
#	93630
#	107580
#	121029
#	138760
#	151398
#	165048
#
# Disc length: 2489 seconds
#
# Revision: 1
# Processed by: cddbd v1.5.1PL0 Copyright (c) Steve Scherf et al.
# Submitted via: audiograbber 1.83.01
#
DISCID=7709b70c
DTITLE=Various Artist - ELLINIKO GLENTI
DYEAR=1900
DGENRE=
TTITLE0=MES TOY AIGAIOY TA NERA
TTITLE1=KOYKLAM MOY ESY
TTITLE2=KARABI KARABAKI-EIXA MIA N AGAPI
TTITLE3=MIA SMYRNIA STO PARATHYRI
TTITLE4=THALASSAKI MOY
TTITLE5=MPALLOS-MASTIXA
TTITLE6=H TRATA
TTITLE7=APO TA POLLA
TTITLE8=MATIA SAN KAI TA DIKA SOY
TTITLE9=ARAMPAS PERNA
TTITLE10=NERAIDA EISAI MATIA MOY
TTITLE11=SAGAPW GIATI EISAI WRAIA
EXTD=GRABBED BY FOGGY_MT.
EXTT0=
EXTT1=
EXTT2=
EXTT3=
EXTT4=
EXTT5=
EXTT6=
EXTT7=
EXTT8=
EXTT9=
EXTT10=
EXTT11=
PLAYORDER=
